<svg width="37" height="37" viewBox="0 0 37 37" fill="none" xmlns="http://www.w3.org/2000/svg">
<path d="M24.7681 13.867C25.2197 13.4155 25.2197 12.6834 24.7681 12.2318C24.3166 11.7803 23.5845 11.7803 23.133 12.2318L18.4999 16.8649L13.8669 12.2318C13.4154 11.7803 12.6833 11.7803 12.2317 12.2318C11.7802 12.6834 11.7802 13.4155 12.2317 13.867L16.8648 18.5L12.2317 23.1331C11.7802 23.5846 11.7802 24.3167 12.2317 24.7683C12.6833 25.2198 13.4154 25.2198 13.8669 24.7683L18.4999 20.1352L23.133 24.7683C23.5845 25.2198 24.3166 25.2198 24.7682 24.7683C25.2197 24.3167 25.2197 23.5846 24.7682 23.1331L20.1351 18.5L24.7681 13.867Z" fill="#E5DEE7"/>
</svg>
