<svg width="25" height="25" viewBox="0 0 25 25" fill="none" xmlns="http://www.w3.org/2000/svg">
<path fill-rule="evenodd" clip-rule="evenodd" d="M14.9845 16.0893C12.2238 18.3004 8.18276 18.1263 5.62361 15.5672C2.87774 12.8213 2.87774 8.36937 5.62361 5.62349C8.36949 2.87762 12.8214 2.87762 15.5673 5.62349C18.1264 8.18264 18.3005 12.2237 16.0894 14.9844L21.4598 20.3549C21.7649 20.66 21.7649 21.1546 21.4598 21.4597C21.1547 21.7648 20.6601 21.7648 20.355 21.4597L14.9845 16.0893ZM6.72847 14.4623C4.59279 12.3266 4.59279 8.86403 6.72847 6.72835C8.86415 4.59267 12.3268 4.59267 14.4624 6.72835C16.5966 8.86246 16.5981 12.3216 14.4671 14.4576C14.4656 14.4592 14.464 14.4607 14.4624 14.4623C14.4609 14.4639 14.4593 14.4654 14.4578 14.467C12.3217 16.598 8.86258 16.5964 6.72847 14.4623Z" fill="#E5DEE7" fill-opacity="0.17"/>
</svg>
